<svg version="1.1" id="Layer_1" xmlns="http://www.w3.org/2000/svg" xmlns:xlink="http://www.w3.org/1999/xlink" x="0px" y="0px"
	 width="100%" viewBox="0 0 500 500" enable-background="new 0 0 500 500" xml:space="preserve">
<path fill="#1B73E8" opacity="1.000000" stroke="none" 
	d="
M501.000000,190.000000 
	C501.000000,293.999969 501.000000,397.499969 501.000000,500.999939 
	C334.333405,500.999969 167.666794,500.999969 1.000145,501.000000 
	C1.000097,334.333435 1.000097,167.666870 1.000048,1.000234 
	C167.666519,1.000156 334.333038,1.000156 500.999786,1.000078 
	C501.000000,63.833332 501.000000,126.666664 501.000000,190.000000 
M124.384636,332.115540 
	C118.379562,326.110321 112.307854,320.169525 106.407097,314.063477 
	C104.455177,312.043701 102.675491,311.404877 99.857056,312.275696 
	C68.346199,322.012146 47.741673,342.570007 38.376614,374.191711 
	C37.873199,375.891541 38.745186,378.788757 40.027622,380.104584 
	C52.230099,392.624969 64.707848,404.876587 76.976830,417.333160 
	C79.011940,419.399323 80.780350,419.779266 83.510284,418.926117 
	C114.970879,409.093750 135.579926,388.540253 144.887680,356.883911 
	C145.353821,355.298523 144.654556,352.654144 143.507919,351.430725 
	C137.475632,344.994537 131.124817,338.856842 124.384636,332.115540 
M476.938324,377.301239 
	C478.075684,351.511261 467.626862,331.857147 445.583435,318.456757 
	C418.650818,302.084137 380.956635,310.357971 363.474365,336.660004 
	C349.716705,357.358398 347.529266,379.348419 359.326508,401.429077 
	C371.315948,423.869507 390.595917,435.211395 416.357635,434.989288 
	C447.310120,434.722412 474.525543,409.274994 476.938324,377.301239 
M186.381027,68.118607 
	C169.784134,43.087444 141.527695,31.558594 112.669960,38.043915 
	C77.178802,46.019997 53.711872,81.547859 60.287907,117.347954 
	C66.950096,153.617065 100.824539,178.568130 136.841812,173.735657 
	C186.998718,167.006042 212.696014,112.990372 186.381027,68.118607 
M279.268982,418.799835 
	C297.229248,387.837433 315.215759,356.890167 333.062164,325.862305 
	C333.847992,324.496063 333.353027,322.393188 333.454681,320.633423 
	C331.933105,321.472321 330.311279,322.176544 328.930298,323.204346 
	C328.189209,323.755890 327.851044,324.857239 327.349640,325.721252 
	C310.470154,354.808472 293.594299,383.897858 276.711365,412.983093 
	C275.807312,414.540527 274.846252,416.064850 273.813416,417.766479 
	C272.469513,417.077118 271.484161,416.507599 270.448761,416.051727 
	C266.024872,414.104004 265.031036,411.612549 268.035370,407.269775 
	C271.433411,402.357941 274.109436,396.946228 277.094330,391.748962 
	C279.166931,388.140137 281.355255,384.588196 283.205109,380.868225 
	C283.628357,380.016998 282.871979,378.579132 282.658539,377.411285 
	C281.492371,377.694122 279.993317,377.625427 279.237122,378.341278 
	C278.069336,379.446930 277.372101,381.067535 276.540405,382.507385 
	C268.879120,395.770508 261.093689,408.964508 253.625488,422.335632 
	C247.943436,432.508850 239.641708,437.311157 227.927734,437.119110 
	C210.444260,436.832397 192.952438,437.008667 175.464432,437.066864 
	C168.445404,437.090210 165.373230,440.136749 165.202896,447.062164 
	C165.108749,450.890656 165.168106,454.723297 165.185135,458.553986 
	C165.225830,467.708282 167.885910,470.422882 177.160767,470.444733 
	C194.648651,470.485901 212.137466,470.507294 229.624146,470.345215 
	C232.970810,470.314178 234.694351,471.054718 234.352280,474.717102 
	C233.740982,481.262238 237.445541,484.949127 243.029465,487.179626 
	C251.850403,490.703156 260.909821,490.881165 269.997620,488.509430 
	C279.847321,485.938873 282.480438,482.370605 282.497101,472.271820 
	C282.500946,469.940613 282.700195,467.569366 282.340759,465.290497 
	C282.041412,463.392792 281.363403,461.379974 280.255615,459.851044 
	C279.602966,458.950287 277.785767,458.893341 276.492310,458.456940 
	C276.306488,459.732849 275.523834,461.381653 276.045013,462.215759 
	C277.709717,464.880035 276.786102,466.531586 274.647949,468.142487 
	C267.735291,473.350586 248.848495,473.330505 242.082016,468.080566 
	C239.082962,465.753632 238.943771,463.179199 242.404648,461.473816 
	C245.908005,459.747467 249.843826,458.530273 253.713242,458.016327 
	C257.788849,457.475006 262.017639,458.191895 266.162750,457.999481 
	C267.293243,457.946960 268.363647,456.599792 269.461639,455.846832 
	C268.587433,454.972504 267.858643,453.679901 266.807556,453.314423 
	C264.862854,452.638275 262.729462,452.504913 260.102051,452.045288 
	C266.620544,440.752197 272.770325,430.097961 279.268982,418.799835 
M344.778290,111.282700 
	C335.618011,121.976860 327.406769,133.190414 323.815948,147.180405 
	C322.992828,150.387344 323.734955,152.406143 326.063965,154.598053 
	C335.513977,163.491776 346.509888,169.269608 359.095490,172.419739 
	C363.493103,173.520432 365.623749,172.309708 366.776398,168.252960 
	C370.504486,155.131561 374.295410,142.027939 378.002625,128.900665 
	C382.292358,113.710449 382.891815,97.080498 395.850525,84.994583 
	C392.666809,81.400414 389.745087,78.101974 386.729797,74.697937 
	C371.190247,85.411903 357.397705,97.134270 344.778290,111.282700 
M325.998413,236.501495 
	C325.998413,251.921524 325.998413,267.341553 325.998413,282.597107 
	C333.096375,282.597107 339.487579,282.597107 346.204712,282.597107 
	C346.204712,273.583160 346.204712,264.972260 346.204712,256.299744 
	C348.957428,256.299744 351.356689,256.299744 354.315582,256.299744 
	C354.315582,265.316833 354.315582,274.049133 354.315582,282.701019 
	C361.145508,282.701019 367.401855,282.701019 373.651215,282.701019 
	C373.651215,261.347382 373.651215,240.296249 373.651215,219.305450 
	C367.045563,219.305450 360.794678,219.305450 353.975952,219.305450 
	C353.975952,228.326996 353.975952,237.055756 353.975952,245.626831 
	C350.996490,245.626831 348.600800,245.626831 346.001587,245.626831 
	C346.001587,240.938354 346.001587,236.619263 346.001587,232.300171 
	C346.001587,228.013641 346.001587,223.727097 346.001587,219.299042 
	C339.118744,219.299042 332.731720,219.299042 325.998413,219.299042 
	C325.998413,224.896561 325.998413,230.199402 325.998413,236.501495 
M223.902878,248.302765 
	C231.539169,237.799744 225.204315,221.237488 210.710953,219.453827 
	C200.425766,218.188049 189.859222,219.208496 179.309464,219.208496 
	C179.309464,240.575241 179.309464,261.626526 179.309464,282.637146 
	C186.017044,282.637146 192.406006,282.637146 199.080505,282.637146 
	C199.080505,274.862122 199.080505,267.449768 199.080505,260.037415 
	C199.340424,259.983582 199.600357,259.929749 199.860275,259.875885 
	C202.308731,267.523132 204.757187,275.170380 207.165726,282.692993 
	C213.903625,282.692993 220.297653,282.692993 227.079254,282.692993 
	C224.912354,275.641296 223.310394,268.800079 220.683960,262.377838 
	C218.441162,256.893707 218.612656,252.598068 223.902878,248.302765 
M472.797607,242.103180 
	C477.001526,232.534561 471.595428,221.082489 460.925476,219.818787 
	C450.509583,218.585159 439.833282,219.550507 429.350708,219.550507 
	C429.350708,240.703430 429.350708,261.735138 429.350708,282.965973 
	C439.506592,282.965973 449.318054,283.235474 459.107758,282.890076 
	C468.871368,282.545563 476.628998,273.913940 477.069244,264.205475 
	C477.393860,257.048676 473.582916,252.080475 469.089020,247.454163 
	C470.302216,245.718994 471.348175,244.223038 472.797607,242.103180 
M376.998566,259.316467 
	C377.380554,273.635162 387.826538,284.082947 401.674683,283.996887 
	C415.439362,283.911316 425.895691,273.182281 425.985474,258.914520 
	C426.060944,246.918716 426.012054,234.922012 425.985168,222.925797 
	C425.982330,221.666946 425.756409,220.408569 425.652863,219.343903 
	C418.812012,219.343903 412.386597,219.343903 405.702789,219.343903 
	C405.702789,235.672806 405.682068,251.657593 405.720642,267.642242 
	C405.728149,270.756775 405.139099,273.779999 401.516083,273.812622 
	C397.852081,273.845642 397.277588,270.790009 397.285065,267.697388 
	C397.314392,255.534576 397.296021,243.371628 397.295441,231.208740 
	C397.295258,227.270187 397.295410,223.331635 397.295410,219.251404 
	C390.261536,219.251404 383.851624,219.251404 376.998413,219.251404 
	C376.998413,232.452774 376.998413,245.406204 376.998566,259.316467 
M130.203857,273.192322 
	C138.139343,283.050232 148.718307,286.479553 159.344269,282.638611 
	C169.822296,278.851135 175.873627,269.588196 175.885406,257.307739 
	C175.890366,252.148590 176.028885,246.984543 175.854172,241.831268 
	C175.400818,228.459641 164.094574,217.842407 150.630142,217.994781 
	C137.043274,218.148529 126.204720,228.845032 126.004013,242.369965 
	C125.925003,247.694366 125.489357,253.082687 126.136490,258.328369 
	C126.731018,263.147583 128.562515,267.814178 130.203857,273.192322 
M309.678101,129.730286 
	C311.978027,134.382797 314.277954,139.035309 316.924988,144.389969 
	C329.282623,110.695007 354.763489,89.914536 381.275848,69.598366 
	C378.175232,67.155830 375.492035,65.042122 372.749054,62.881298 
	C361.983887,71.229362 350.006195,75.162582 337.177094,77.455971 
	C328.552826,78.997673 320.070435,81.578781 311.739166,84.341927 
	C309.633789,85.040207 307.419495,87.982635 306.842346,90.290680 
	C303.564453,103.399132 304.804260,116.349968 309.678101,129.730286 
M380.223206,173.775330 
	C392.370972,172.435364 403.627258,168.614883 413.545898,161.376862 
	C414.927887,160.368347 416.458435,158.281708 416.391113,156.761917 
	C415.446106,135.434479 411.390594,114.797432 401.845734,95.495972 
	C401.225250,94.241241 400.322937,93.125885 398.514008,90.357697 
	C383.444366,117.129440 384.197784,147.346756 371.673126,173.839722 
	C375.036285,173.839722 377.190491,173.839722 380.223206,173.775330 
M28.464010,247.843781 
	C30.972416,249.666901 33.293503,251.869003 36.033592,253.223373 
	C40.039978,255.203629 44.367725,256.524902 48.520035,258.221191 
	C52.781178,259.961945 54.936581,267.686249 51.993568,271.162079 
	C51.174683,272.129181 49.251568,273.036469 48.214352,272.721649 
	C46.922161,272.329376 45.438606,270.797211 45.090515,269.479218 
	C44.566078,267.493500 44.953838,265.266846 44.953838,262.963745 
	C38.640217,262.963745 32.883392,262.963745 27.164099,262.963745 
	C25.292202,277.127594 30.309454,282.986938 44.066795,283.005737 
	C48.062759,283.011230 52.065048,283.143188 56.053383,282.967010 
	C63.902218,282.620300 70.528336,276.260681 71.806488,268.058594 
	C73.130722,259.560791 69.266068,252.954926 61.222038,250.030869 
	C57.943050,248.838943 54.715309,247.358231 51.330353,246.639816 
	C46.094711,245.528656 44.022850,242.667450 44.851803,237.449844 
	C45.058300,236.150070 44.444504,234.555832 44.995079,233.512375 
	C45.877495,231.840012 47.417053,230.514359 48.678871,229.042175 
	C50.113300,230.555984 52.102634,231.846939 52.825405,233.646576 
	C53.541920,235.430618 52.982159,237.727219 52.982159,239.770401 
	C59.348564,239.770401 64.951721,239.770401 70.519661,239.770401 
	C71.743500,229.868744 69.484482,221.777252 63.344223,220.839249 
	C54.377930,219.469513 45.045311,220.328568 35.879620,220.600479 
	C34.358627,220.645615 32.726799,222.364868 31.429312,223.606369 
	C25.502419,229.277618 24.255375,238.385010 28.464010,247.843781 
M278.818390,228.574844 
	C278.426666,229.668274 277.893219,230.733002 277.665070,231.859543 
	C275.309357,243.493011 278.641174,251.087906 288.772064,254.080460 
	C292.424866,255.159439 295.932190,256.750397 299.468842,258.198273 
	C303.806335,259.973969 305.973236,267.531982 303.023438,271.115845 
	C302.217926,272.094482 300.308899,273.029846 299.267548,272.730103 
	C297.969696,272.356476 296.448425,270.842743 296.099670,269.534454 
	C295.568359,267.541382 295.960510,265.302124 295.960510,262.694366 
	C291.484802,262.694366 287.513916,262.694397 283.543030,262.694397 
	C281.751587,262.694397 279.960144,262.694366 278.248688,262.694366 
	C276.153290,276.934235 281.293884,282.985016 295.008972,283.005676 
	C299.004852,283.011688 303.006561,283.137695 306.995422,282.968811 
	C314.859863,282.635803 321.487976,276.320984 322.796875,268.116394 
	C324.151031,259.627899 320.294342,252.956894 312.277374,250.050919 
	C308.373138,248.635712 304.460510,247.225845 300.489624,246.017609 
	C297.164062,245.005707 295.409943,243.188171 295.842010,239.507431 
	C296.073364,237.536285 295.405853,235.346619 296.030823,233.567032 
	C296.633759,231.850159 298.376862,230.533722 299.619080,229.041367 
	C301.073029,230.535461 303.092285,231.799149 303.821625,233.588577 
	C304.548309,235.371475 303.980927,237.681778 303.980927,239.618988 
	C310.426331,239.618988 316.149811,239.618988 321.885376,239.618988 
	C321.885376,237.736359 321.944336,236.239273 321.875977,234.748016 
	C321.367493,223.654755 316.662262,219.080917 305.681610,218.997421 
	C302.185425,218.970825 298.684174,219.108841 295.193390,218.968811 
	C287.994843,218.680069 282.681854,221.654907 278.818390,228.574844 
M81.593971,218.998383 
	C79.496544,218.998383 77.399117,218.998383 75.350410,218.998383 
	C75.350410,240.677917 75.350410,261.718109 75.350410,282.600647 
	C82.096832,282.600647 88.484062,282.600647 95.197144,282.600647 
	C95.197144,274.265106 95.197144,266.329163 95.197144,257.998993 
	C98.163857,257.998993 100.792534,258.058167 103.417786,257.988495 
	C113.532845,257.719971 123.092545,247.820282 123.000549,237.752380 
	C122.907166,227.533127 114.305527,219.182449 103.554924,219.020554 
	C96.563431,218.915253 89.569092,218.999207 81.593971,218.998383 
M274.995178,221.650803 
	C275.342194,218.237946 272.826874,219.027283 271.001526,219.020233 
	C260.844208,218.981003 250.686630,219.001205 240.529160,219.001114 
	C236.100403,219.001068 231.671646,219.001099 227.391357,219.001099 
	C227.391357,222.736038 227.391357,225.786972 227.391357,229.175095 
	C232.051468,229.175095 236.322983,229.175095 241.093781,229.175095 
	C241.093781,247.234497 241.093781,264.950806 241.093781,282.644592 
	C247.999268,282.644592 254.384445,282.644592 261.270020,282.644592 
	C261.270020,264.577484 261.270020,246.860107 261.270020,228.813919 
	C266.057587,228.813919 270.332794,228.813919 274.998291,228.813919 
	C274.998291,226.515411 274.998291,224.555389 274.995178,221.650803 
M428.658600,147.121445 
	C436.555084,136.863983 441.197571,125.271301 442.596680,112.431198 
	C442.813995,110.436722 442.785767,107.672852 441.625671,106.398476 
	C436.393036,100.650444 431.023834,94.942291 425.102570,89.930054 
	C419.518799,85.203476 412.926270,85.800369 406.085297,88.607010 
	C416.991608,108.545395 421.291962,130.035553 423.409882,153.332275 
	C425.521332,150.842636 426.865845,149.257309 428.658600,147.121445 
M318.120850,64.632355 
	C315.893921,68.309669 313.666992,71.986984 311.440094,75.664299 
	C329.868805,69.329239 350.507263,71.885559 367.028290,58.058632 
	C359.337097,53.821316 352.224304,49.997070 345.213531,45.994160 
	C342.373413,44.372543 339.812927,44.417068 337.456635,46.566601 
	C331.114380,52.352352 324.853333,58.227127 318.120850,64.632355 
M422.296753,80.722519 
	C428.827850,85.084038 435.358948,89.445557 442.069336,93.926819 
	C440.067780,81.347939 434.863068,69.992020 426.301300,60.151707 
	C425.828613,59.608459 424.829529,59.143044 424.142975,59.222775 
	C412.809143,60.538982 402.221436,63.819115 392.997864,71.016335 
	C395.281464,73.735939 397.532593,75.997139 399.269897,78.601135 
	C401.094788,81.336365 402.907898,81.845383 406.263306,81.217400 
	C411.222626,80.289223 416.418915,80.627136 422.296753,80.722519 
M127.463768,309.015594 
	C122.465141,309.015594 117.466515,309.015594 112.355659,309.015594 
	C124.605286,321.311005 136.023392,332.771790 147.979553,344.772614 
	C147.979553,337.361877 148.050446,330.110840 147.959839,322.861816 
	C147.867142,315.445740 142.318420,309.607391 134.924240,309.066956 
	C132.771469,308.909637 130.598770,309.025116 127.463768,309.015594 
M58.488121,421.983307 
	C62.557720,421.983307 66.627319,421.983307 71.266426,421.983307 
	C58.985901,409.736084 47.522060,398.303345 35.470657,386.284637 
	C35.470657,394.873657 34.772537,403.293579 35.693737,411.532410 
	C36.417755,418.007690 42.389641,421.837189 49.027470,421.971252 
	C51.851833,422.028320 54.678268,421.982910 58.488121,421.983307 
M396.602173,39.820347 
	C393.951477,39.100540 391.300812,38.380733 387.880646,37.451977 
	C388.663605,46.459908 385.206512,52.938129 378.877472,57.848843 
	C385.755188,66.198906 386.200928,66.288994 394.700531,61.560291 
	C396.437897,60.593697 398.138031,59.491341 399.986786,58.806435 
	C405.958160,56.594269 411.990784,54.547539 419.834900,51.792534 
	C411.567780,47.479675 404.460602,43.771957 396.602173,39.820347 
M361.540405,46.901985 
	C365.299866,49.248596 369.059326,51.595207 372.677887,53.853863 
	C379.899292,48.034557 381.445618,45.447433 380.800415,39.623173 
	C380.667999,38.427940 379.587280,36.426006 378.800598,36.353767 
	C369.216400,35.473663 359.891754,36.626408 350.068573,40.459831 
	C354.284424,42.815369 357.600098,44.667927 361.540405,46.901985 
M300.559967,351.095795 
	C305.456787,342.579346 310.444763,334.112610 315.142914,325.487946 
	C315.778992,324.320160 314.961151,322.360352 314.816528,320.767273 
	C313.514343,321.504395 311.651459,321.911743 310.994720,323.028442 
	C302.216522,337.954529 293.556030,352.951080 285.054169,368.036011 
	C284.389893,369.214630 285.127197,371.183167 285.213074,372.784576 
	C286.623627,371.965912 288.589233,371.493011 289.350952,370.270203 
	C293.134277,364.196594 296.600342,357.925385 300.559967,351.095795 
z"/>
<path fill="#D8E7FB" opacity="1.000000" stroke="none" 
	d="
M124.634613,332.365540 
	C131.124817,338.856842 137.475632,344.994537 143.507919,351.430725 
	C144.654556,352.654144 145.353821,355.298523 144.887680,356.883911 
	C135.579926,388.540253 114.970879,409.093750 83.510284,418.926117 
	C80.780350,419.779266 79.011940,419.399323 76.976830,417.333160 
	C64.707848,404.876587 52.230099,392.624969 40.027622,380.104584 
	C38.745186,378.788757 37.873199,375.891541 38.376614,374.191711 
	C47.741673,342.570007 68.346199,322.012146 99.857056,312.275696 
	C102.675491,311.404877 104.455177,312.043701 106.407097,314.063477 
	C112.307854,320.169525 118.379562,326.110321 124.634613,332.365540 
M92.289917,351.925842 
	C87.079948,353.367767 87.056435,353.752075 91.374878,359.994720 
	C89.805611,362.091034 88.313385,364.084412 86.821152,366.077789 
	C86.720085,365.587708 86.619019,365.097595 86.517952,364.607483 
	C83.924835,364.201294 81.331711,363.795135 78.738586,363.388947 
	C79.175987,365.999237 79.613388,368.609497 79.954552,370.645447 
	C78.712379,372.469910 77.256287,374.608582 75.800186,376.747253 
	C75.684021,376.140717 75.567856,375.534180 75.451683,374.927673 
	C73.005455,374.613800 70.559227,374.299896 68.112999,373.986023 
	C68.568901,376.653595 69.024811,379.321167 69.363525,381.303040 
	C68.823380,384.022583 68.340675,386.452942 67.857971,388.883301 
	C70.585434,388.592651 73.312897,388.301971 75.260551,388.094421 
	C78.257286,388.501556 80.722313,388.836487 83.187340,389.171387 
	C82.781006,386.568024 82.374664,383.964630 81.911964,381.000153 
	C82.844421,379.712402 84.372116,377.602570 85.899803,375.492767 
	C86.081268,376.152100 86.262733,376.811432 86.444191,377.470764 
	C88.911972,377.812042 91.379761,378.153290 93.847542,378.494537 
	C93.420494,375.775970 92.993454,373.057373 92.430489,369.473541 
	C93.295319,368.646362 95.050262,366.967834 96.805206,365.289307 
	C96.856102,365.776703 96.906998,366.264099 96.957886,366.751495 
	C99.406059,367.179382 101.854225,367.607239 104.302391,368.035126 
	C103.968254,365.330994 103.634109,362.626862 103.187302,359.010925 
	C103.903419,358.162018 105.491837,356.279053 107.080254,354.396057 
	C107.201187,354.918579 107.322121,355.441071 107.443054,355.963562 
	C109.944954,356.445648 112.446846,356.927704 114.948738,357.409790 
	C114.628242,354.687225 114.307747,351.964691 114.080742,350.036285 
	C114.496094,347.063599 114.839752,344.604004 115.183426,342.144409 
	C112.600220,342.511322 110.017014,342.878235 107.250259,343.271210 
	C105.202728,342.928558 102.619423,342.496246 100.036125,342.063934 
	C100.488678,344.735718 100.941238,347.407532 101.460457,350.472900 
	C100.534851,351.573029 98.951241,353.455261 97.295761,355.422913 
	C95.595612,354.114075 94.306358,353.121552 92.289917,351.925842 
z"/>
<path fill="#D3E4FB" opacity="1.000000" stroke="none" 
	d="
M476.927948,377.771423 
	C474.525543,409.274994 447.310120,434.722412 416.357635,434.989288 
	C390.595917,435.211395 371.315948,423.869507 359.326508,401.429077 
	C347.529266,379.348419 349.716705,357.358398 363.474365,336.660004 
	C380.956635,310.357971 418.650818,302.084137 445.583435,318.456757 
	C467.626862,331.857147 478.075684,351.511261 476.927948,377.771423 
M448.321106,325.117645 
	C442.683289,319.936493 436.653625,318.660126 429.786316,322.861206 
	C427.545807,324.231842 424.981659,325.394958 422.421448,325.859924 
	C415.327148,327.148468 416.678070,332.473633 416.936432,337.027130 
	C417.197937,341.635376 418.112732,346.206757 418.760345,350.791626 
	C418.776489,350.906006 419.018585,350.984375 419.149261,351.087219 
	C424.375641,355.199310 429.509766,359.438599 434.890747,363.337189 
	C436.252014,364.323517 438.571991,364.899780 440.155579,364.498138 
	C445.299591,363.193390 450.346313,361.457428 455.340149,359.639374 
	C456.727264,359.134430 458.408142,358.017975 458.925415,356.759216 
	C464.786224,342.498108 463.360962,337.256805 451.274750,327.373779 
	C450.502228,326.742096 449.695190,326.152679 448.321106,325.117645 
M395.711243,362.371796 
	C412.682098,350.293854 412.682037,350.293854 412.416687,332.403229 
	C412.411743,332.070740 412.543823,331.654724 412.392181,331.419220 
	C411.433777,329.930481 410.737732,327.803345 409.354828,327.141998 
	C404.420013,324.781952 399.339081,322.615875 394.116669,321.020691 
	C391.868347,320.333954 388.474060,320.309631 386.747345,321.563629 
	C380.747375,325.921173 375.226959,330.943695 369.570831,335.768036 
	C366.586548,338.313354 366.856750,341.386017 367.201172,345.133759 
	C368.168732,355.662201 373.151733,361.704834 383.796906,362.900604 
	C385.253357,363.064209 386.743134,363.592651 388.052124,364.271210 
	C390.873108,365.733612 393.127045,365.091034 395.711243,362.371796 
M363.829132,369.327393 
	C362.238586,371.249847 360.330597,372.997772 359.149872,375.145538 
	C358.046173,377.153229 356.703369,379.859772 357.225372,381.780609 
	C359.043304,388.470490 361.446411,395.024963 364.048645,401.460480 
	C364.653168,402.955505 366.781281,404.410339 368.455780,404.788818 
	C373.473785,405.922974 378.601288,406.622467 383.716309,407.241943 
	C384.961151,407.392700 386.809204,407.007263 387.551727,406.150574 
	C392.974243,399.893921 396.959412,394.161652 394.509796,384.190521 
	C391.886444,373.512177 387.781769,367.535736 376.932770,364.962494 
	C371.137695,363.588013 367.224945,363.124146 363.829132,369.327393 
M470.860779,388.082855 
	C473.264404,381.610748 472.852478,375.829315 466.950195,371.243866 
	C465.932159,370.452911 465.139740,369.270782 464.485107,368.130402 
	C461.843811,363.529358 458.720581,363.464600 453.487396,364.607819 
	C441.651062,367.193665 436.450562,373.542480 434.555511,385.483337 
	C433.401581,392.754242 434.665375,397.544373 438.860443,402.951904 
	C441.845062,406.799255 444.694000,407.718445 449.330383,406.894714 
	C465.540253,404.014648 465.569427,404.178833 470.860779,388.082855 
M428.779968,428.560822 
	C430.481659,425.704559 431.873993,422.597809 433.944763,420.040375 
	C439.474915,413.210480 438.593445,407.463806 432.523041,401.299713 
	C429.719177,398.452576 427.428680,396.763947 423.317444,396.992004 
	C416.680084,397.360168 410.003326,396.965912 403.352753,397.184906 
	C401.766846,397.237152 399.740936,398.029297 398.742767,399.190613 
	C395.722931,402.703827 393.108459,406.565491 390.312225,410.323334 
	C392.076996,413.224792 394.117950,415.749146 395.276093,418.628510 
	C400.242584,430.976685 410.012817,432.434937 421.364899,430.535065 
	C423.647552,430.153076 425.891724,429.541321 428.779968,428.560822 
z"/>
<path fill="#EEF5FD" opacity="1.000000" stroke="none" 
	d="
M186.594757,68.412155 
	C212.696014,112.990372 186.998718,167.006042 136.841812,173.735657 
	C100.824539,178.568130 66.950096,153.617065 60.287907,117.347954 
	C53.711872,81.547859 77.178802,46.019997 112.669960,38.043915 
	C141.527695,31.558594 169.784134,43.087444 186.594757,68.412155 
M189.904892,93.798409 
	C182.781281,63.610180 154.705246,39.598869 130.649582,43.414387 
	C130.302094,46.247196 129.945129,49.157227 129.564270,52.262100 
	C131.914856,52.933361 134.019821,53.130928 135.654114,54.112309 
	C137.359543,55.136417 139.948822,57.075146 139.798706,58.333298 
	C139.422546,61.486309 136.665756,60.860600 134.274353,60.155281 
	C132.252655,59.558994 130.160049,59.203144 128.029053,58.725239 
	C126.369530,62.778061 124.875824,66.425919 123.276413,70.331947 
	C125.461014,71.671127 127.797867,72.707298 129.570160,74.351868 
	C130.501419,75.216019 130.444687,77.144882 130.834091,78.592957 
	C129.371262,78.921509 127.721931,79.840782 126.486015,79.450592 
	C124.201057,78.729218 122.158264,77.240791 119.968781,76.046906 
	C117.569748,79.213211 115.404152,82.071434 112.693085,85.649574 
	C114.647171,87.264709 116.751137,88.516052 118.113396,90.325729 
	C118.846260,91.299294 118.307083,93.230408 118.341866,94.729469 
	C116.848923,94.702156 115.016769,95.212708 113.936356,94.531303 
	C111.923393,93.261772 110.347878,91.298630 108.549057,89.584885 
	C105.204498,92.262093 102.276489,94.605865 99.320435,96.972099 
	C100.692902,99.367043 102.196175,101.268616 102.871605,103.429016 
	C103.303543,104.810593 102.512222,106.574615 102.269310,108.167175 
	C100.740471,107.681084 98.725716,107.638809 97.788307,106.612518 
	C96.066223,104.727119 94.978653,102.262169 93.637497,100.056740 
	C89.430267,101.850624 85.676506,103.451157 81.837128,105.088196 
	C82.519112,107.591866 83.516365,109.669640 83.500473,111.739632 
	C83.489494,113.169403 82.078323,114.588417 81.292870,116.012245 
	C80.051338,115.152130 78.312531,114.557442 77.679970,113.372299 
	C76.620949,111.388138 76.267685,109.027298 75.515541,106.480072 
	C72.218712,106.930527 69.171120,107.346931 66.221497,107.749954 
	C63.834244,136.967789 96.551224,169.669037 125.731239,167.410477 
	C126.183968,164.076065 126.644432,160.684738 127.142792,157.014252 
	C124.122429,156.160065 121.301064,155.668793 118.782799,154.515610 
	C117.593033,153.970795 116.983978,152.157837 116.111809,150.919464 
	C117.552444,150.160416 119.033363,148.708405 120.425148,148.789352 
	C123.161240,148.948425 125.847786,149.959518 128.750931,150.665817 
	C130.438629,146.799957 132.022034,143.172989 133.745834,139.224426 
	C131.517044,137.880600 129.024200,136.781219 127.095337,135.052567 
	C126.055176,134.120392 125.980286,132.111130 125.469894,130.587830 
	C127.074280,130.341797 128.869827,129.520660 130.240921,129.976440 
	C132.657898,130.779907 134.815872,132.362534 137.058624,133.605850 
	C139.554810,130.428635 141.683075,127.719742 144.256378,124.444374 
	C142.237915,122.683792 140.065643,121.272720 138.602722,119.328033 
	C137.752182,118.197388 138.039688,116.210632 137.815094,114.609085 
	C139.554596,114.770462 141.778290,114.321671 142.924240,115.231033 
	C144.814514,116.731041 146.008331,119.108681 147.485489,121.102646 
	C151.582825,117.963112 154.467117,115.753075 157.645523,113.317657 
	C156.408554,111.183945 154.868195,109.306503 154.211014,107.158813 
	C153.634262,105.273979 153.216553,101.946838 154.178925,101.244759 
	C157.121384,99.098137 158.397369,102.141388 159.688690,104.230835 
	C160.893616,106.180504 162.033295,108.170494 163.220932,110.175186 
	C167.293808,108.510323 170.958847,107.012169 174.771469,105.453682 
	C174.079254,102.722672 173.081818,100.186104 172.920471,97.597427 
	C172.831528,96.170593 174.147034,94.656212 174.829361,93.181297 
	C176.174988,94.127205 178.105301,94.786209 178.740479,96.080711 
	C179.939575,98.524521 180.393448,101.333992 181.188904,104.102333 
	C184.722900,103.520554 187.756058,103.021225 190.999512,102.487274 
	C190.635651,99.576004 190.327377,97.109329 189.904892,93.798409 
M174.080002,112.600838 
	C171.591782,113.679871 169.103561,114.758896 166.992249,115.674477 
	C167.232162,119.475937 172.746429,122.413979 168.249344,125.057434 
	C163.246414,127.998230 163.655243,120.787422 160.208588,119.322426 
	C157.958191,121.091263 155.548569,122.985260 152.549866,125.342278 
	C154.418030,126.924217 156.232285,127.863541 157.081085,129.353027 
	C157.874390,130.745132 157.643250,132.721008 157.863007,134.439957 
	C156.115341,134.140335 154.032181,134.324463 152.711761,133.408752 
	C151.315369,132.440353 150.645172,130.424759 149.282333,128.274170 
	C146.369568,132.047455 144.605209,134.333054 142.665619,136.845642 
	C144.950562,138.234909 147.041763,139.081009 148.506042,140.551407 
	C149.429016,141.478226 149.414017,143.339111 149.819778,144.781006 
	C148.353241,145.113876 146.732315,146.004578 145.455719,145.651215 
	C143.452209,145.096680 141.681000,143.702881 139.294464,142.377365 
	C137.810730,145.817413 136.467987,148.930542 135.212875,151.840515 
	C137.892792,154.607681 144.594604,152.608795 143.290710,157.864868 
	C141.959503,163.231094 137.003342,158.228058 133.293045,159.348251 
	C132.928894,161.799591 132.529388,164.488907 132.119415,167.248703 
	C160.583069,167.465347 189.788864,141.047638 190.376419,109.210098 
	C187.933899,109.542679 185.569443,109.864632 182.792297,110.242783 
	C183.241150,112.094536 183.963806,113.538864 183.830826,114.899551 
	C183.646957,116.780762 183.301880,119.746452 182.172699,120.222023 
	C179.176071,121.484100 178.592575,118.693527 177.743530,116.416817 
	C177.174103,114.889900 175.801804,113.662399 174.080002,112.600838 
M79.402466,65.929543 
	C71.404465,76.233566 66.477951,87.662498 65.926224,101.405746 
	C69.022469,100.884750 71.401840,100.484383 73.941002,100.057129 
	C73.209000,97.305115 72.272484,95.090233 72.152267,92.831902 
	C72.082542,91.522079 73.325203,90.142387 73.977287,88.794136 
	C75.342461,89.633133 77.263222,90.160080 77.948822,91.380768 
	C79.117035,93.460724 79.509148,95.976585 80.359314,98.738060 
	C83.946579,97.235840 87.075081,95.925735 90.500511,94.491295 
	C89.150032,92.072441 87.696152,90.309517 87.212929,88.311813 
	C86.882179,86.944443 87.903511,85.250023 88.320396,83.701805 
	C89.716499,84.231995 91.508720,84.394585 92.419090,85.375557 
	C93.914009,86.986427 94.836861,89.128197 96.164665,91.315865 
	C99.092308,88.988312 101.516701,87.060852 104.689484,84.538406 
	C103.134064,83.390938 101.862122,82.772736 101.043106,81.780617 
	C99.422752,79.817802 95.406982,78.171486 98.418037,74.992523 
	C101.413536,71.829971 103.258301,75.563332 105.271240,77.222420 
	C106.377396,78.134125 107.414886,79.129135 108.757736,80.332489 
	C110.752075,77.708191 112.519669,75.382263 114.486099,72.794693 
	C111.937531,71.273354 109.598099,70.260849 107.798470,68.646553 
	C106.846207,67.792351 106.832977,65.891304 106.395813,64.462868 
	C107.852104,64.083145 109.511536,63.070786 110.721169,63.459209 
	C113.032257,64.201317 115.087181,65.741196 117.753777,67.232582 
	C119.124397,63.698429 120.385696,60.446148 121.742020,56.948860 
	C119.135956,56.172211 117.059097,55.914387 115.406235,54.938477 
	C114.231079,54.244633 113.627319,52.583035 112.768547,51.353352 
	C114.199257,50.585842 115.593887,49.285168 117.069771,49.185326 
	C118.928543,49.059586 120.853699,49.915005 123.370842,50.488495 
	C123.632462,47.711498 123.849808,45.404465 124.104950,42.696201 
	C105.744713,44.393963 91.258415,51.876244 79.402466,65.929543 
z"/>
<path fill="#92BCF4" opacity="1.000000" stroke="none" 
	d="
M279.094543,419.121765 
	C272.770325,430.097961 266.620544,440.752197 260.102051,452.045288 
	C262.729462,452.504913 264.862854,452.638275 266.807556,453.314423 
	C267.858643,453.679901 268.587433,454.972504 269.461639,455.846832 
	C268.363647,456.599792 267.293243,457.946960 266.162750,457.999481 
	C262.017639,458.191895 257.788849,457.475006 253.713242,458.016327 
	C249.843826,458.530273 245.908005,459.747467 242.404648,461.473816 
	C238.943771,463.179199 239.082962,465.753632 242.082016,468.080566 
	C248.848495,473.330505 267.735291,473.350586 274.647949,468.142487 
	C276.786102,466.531586 277.709717,464.880035 276.045013,462.215759 
	C275.523834,461.381653 276.306488,459.732849 276.492310,458.456940 
	C277.785767,458.893341 279.602966,458.950287 280.255615,459.851044 
	C281.363403,461.379974 282.041412,463.392792 282.340759,465.290497 
	C282.700195,467.569366 282.500946,469.940613 282.497101,472.271820 
	C282.480438,482.370605 279.847321,485.938873 269.997620,488.509430 
	C260.909821,490.881165 251.850403,490.703156 243.029465,487.179626 
	C237.445541,484.949127 233.740982,481.262238 234.352280,474.717102 
	C234.694351,471.054718 232.970810,470.314178 229.624146,470.345215 
	C212.137466,470.507294 194.648651,470.485901 177.160767,470.444733 
	C167.885910,470.422882 165.225830,467.708282 165.185135,458.553986 
	C165.168106,454.723297 165.108749,450.890656 165.202896,447.062164 
	C165.373230,440.136749 168.445404,437.090210 175.464432,437.066864 
	C192.952438,437.008667 210.444260,436.832397 227.927734,437.119110 
	C239.641708,437.311157 247.943436,432.508850 253.625488,422.335632 
	C261.093689,408.964508 268.879120,395.770508 276.540405,382.507385 
	C277.372101,381.067535 278.069336,379.446930 279.237122,378.341278 
	C279.993317,377.625427 281.492371,377.694122 282.658539,377.411285 
	C282.871979,378.579132 283.628357,380.016998 283.205109,380.868225 
	C281.355255,384.588196 279.166931,388.140137 277.094330,391.748962 
	C274.109436,396.946228 271.433411,402.357941 268.035370,407.269775 
	C265.031036,411.612549 266.024872,414.104004 270.448761,416.051727 
	C271.484161,416.507599 272.469513,417.077118 273.813416,417.766479 
	C274.846252,416.064850 275.807312,414.540527 276.711365,412.983093 
	C293.594299,383.897858 310.470154,354.808472 327.349640,325.721252 
	C327.851044,324.857239 328.189209,323.755890 328.930298,323.204346 
	C330.311279,322.176544 331.933105,321.472321 333.454651,320.633423 
	C333.353027,322.393188 333.847992,324.496063 333.062164,325.862305 
	C315.215759,356.890167 297.229248,387.837433 279.094543,419.121765 
M266.397339,430.887573 
	C267.934418,428.191132 269.471466,425.494720 270.956451,422.889679 
	C262.879272,416.468384 262.720367,416.380493 258.113892,424.710052 
	C252.055878,435.664276 243.241547,441.884247 230.472702,442.246735 
	C229.272552,442.280792 227.326294,444.026947 227.092941,445.240845 
	C226.120834,450.297974 225.505371,455.443726 225.137619,460.584076 
	C225.034546,462.024689 226.241394,464.835907 226.820007,464.828674 
	C229.408615,464.796265 233.599548,464.747192 234.293640,463.302246 
	C237.486526,456.655334 243.273758,454.540344 249.551498,453.386658 
	C252.929230,452.765930 254.801743,451.251495 256.340332,448.417053 
	C259.436890,442.712372 262.784332,437.143860 266.397339,430.887573 
M251.468689,484.291992 
	C258.667206,485.575226 265.716339,485.129395 272.482574,482.227997 
	C276.243683,480.615204 278.335785,478.051483 276.490265,473.410767 
	C264.390472,478.596924 252.283020,478.135406 240.248810,473.578400 
	C238.817917,478.054504 240.496597,480.581909 244.011780,482.037384 
	C246.144379,482.920349 248.419159,483.459930 251.468689,484.291992 
M181.863495,456.618866 
	C181.387054,453.002014 180.784531,449.395996 180.473145,445.764984 
	C180.213699,442.739563 178.641296,441.931946 175.853073,442.051300 
	C173.121292,442.168304 170.592743,442.591827 170.454712,445.828705 
	C170.228897,451.124115 170.207825,456.447937 170.539795,461.732208 
	C170.613190,462.900543 172.393738,464.706696 173.606628,464.908905 
	C176.443909,465.381897 179.413712,465.060028 182.659714,465.060028 
	C182.375809,462.059845 182.159744,459.776672 181.863495,456.618866 
M208.773575,463.397705 
	C208.095963,457.453613 207.586426,451.481659 206.609055,445.587250 
	C206.395325,444.298340 204.674210,442.918304 203.320831,442.325165 
	C202.769760,442.083649 200.594299,443.712006 200.445236,444.686523 
	C199.447769,451.207275 198.797699,457.781158 197.901978,465.480316 
	C201.948837,465.012878 205.259644,464.630432 208.773575,463.397705 
M220.058624,442.190674 
	C217.341003,442.190674 214.623398,442.190674 211.386215,442.190674 
	C212.290421,449.440125 212.985687,455.840851 213.981323,462.194550 
	C214.149979,463.270905 215.880646,465.080200 216.419861,464.924469 
	C217.680847,464.560211 219.404343,463.350159 219.616638,462.231384 
	C220.478760,457.688293 220.958984,453.059967 221.333572,448.443085 
	C221.495148,446.451721 221.057083,444.411682 220.058624,442.190674 
M186.337067,442.366516 
	C186.784531,448.970245 187.125565,455.584656 187.788727,462.166656 
	C187.894028,463.211609 189.449524,464.110413 190.334534,465.076782 
	C191.256485,463.992218 192.749451,463.022858 192.995850,461.801971 
	C193.812469,457.755829 194.181442,453.619263 194.719391,449.517059 
	C195.703476,442.012909 195.695114,442.003662 188.143860,442.115906 
	C187.813232,442.120819 187.483063,442.157227 186.337067,442.366516 
z"/>
<path fill="#B0CEF7" opacity="1.000000" stroke="none" 
	d="
M345.003632,111.009880 
	C357.397705,97.134270 371.190247,85.411903 386.729797,74.697937 
	C389.745087,78.101974 392.666809,81.400414 395.850525,84.994583 
	C382.891815,97.080498 382.292358,113.710449 378.002625,128.900665 
	C374.295410,142.027939 370.504486,155.131561 366.776398,168.252960 
	C365.623749,172.309708 363.493103,173.520432 359.095490,172.419739 
	C346.509888,169.269608 335.513977,163.491776 326.063965,154.598053 
	C323.734955,152.406143 322.992828,150.387344 323.815948,147.180405 
	C327.406769,133.190414 335.618011,121.976860 345.003632,111.009880 
z"/>
<path fill="#FEFEFF" opacity="1.000000" stroke="none" 
	d="
M325.998413,236.001877 
	C325.998413,230.199402 325.998413,224.896561 325.998413,219.299042 
	C332.731720,219.299042 339.118744,219.299042 346.001587,219.299042 
	C346.001587,223.727097 346.001587,228.013641 346.001587,232.300171 
	C346.001587,236.619263 346.001587,240.938354 346.001587,245.626831 
	C348.600800,245.626831 350.996490,245.626831 353.975952,245.626831 
	C353.975952,237.055756 353.975952,228.326996 353.975952,219.305450 
	C360.794678,219.305450 367.045563,219.305450 373.651215,219.305450 
	C373.651215,240.296249 373.651215,261.347382 373.651215,282.701019 
	C367.401855,282.701019 361.145508,282.701019 354.315582,282.701019 
	C354.315582,274.049133 354.315582,265.316833 354.315582,256.299744 
	C351.356689,256.299744 348.957428,256.299744 346.204712,256.299744 
	C346.204712,264.972260 346.204712,273.583160 346.204712,282.597107 
	C339.487579,282.597107 333.096375,282.597107 325.998413,282.597107 
	C325.998413,267.341553 325.998413,251.921524 325.998413,236.001877 
z"/>
<path fill="#FDFEFF" opacity="1.000000" stroke="none" 
	d="
M223.682404,248.605652 
	C218.612656,252.598068 218.441162,256.893707 220.683960,262.377838 
	C223.310394,268.800079 224.912354,275.641296 227.079254,282.692993 
	C220.297653,282.692993 213.903625,282.692993 207.165726,282.692993 
	C204.757187,275.170380 202.308731,267.523132 199.860275,259.875885 
	C199.600357,259.929749 199.340424,259.983582 199.080505,260.037415 
	C199.080505,267.449768 199.080505,274.862122 199.080505,282.637146 
	C192.406006,282.637146 186.017044,282.637146 179.309464,282.637146 
	C179.309464,261.626526 179.309464,240.575241 179.309464,219.208496 
	C189.859222,219.208496 200.425766,218.188049 210.710953,219.453827 
	C225.204315,221.237488 231.539169,237.799744 223.682404,248.605652 
M198.998917,238.517365 
	C198.998917,241.652542 198.998917,244.787735 198.998917,247.917862 
	C205.926437,247.946640 207.611023,245.418106 207.121994,236.292908 
	C206.854965,231.310364 204.277069,229.126984 199.229340,229.613907 
	C199.163834,229.935638 199.045090,230.256729 199.041321,230.579193 
	C199.014114,232.903061 199.010208,235.227234 198.998917,238.517365 
z"/>
<path fill="#FCFDFF" opacity="1.000000" stroke="none" 
	d="
M472.595886,242.415131 
	C471.348175,244.223038 470.302216,245.718994 469.089020,247.454163 
	C473.582916,252.080475 477.393860,257.048676 477.069244,264.205475 
	C476.628998,273.913940 468.871368,282.545563 459.107758,282.890076 
	C449.318054,283.235474 439.506592,282.965973 429.350708,282.965973 
	C429.350708,261.735138 429.350708,240.703430 429.350708,219.550507 
	C439.833282,219.550507 450.509583,218.585159 460.925476,219.818787 
	C471.595428,221.082489 477.001526,232.534561 472.595886,242.415131 
M457.060669,266.916321 
	C457.080658,264.756195 457.189789,262.592499 457.102722,260.436707 
	C456.897827,255.365952 454.486908,253.271042 449.126892,253.476517 
	C449.126892,259.891541 449.126892,266.308319 449.126892,272.812469 
	C453.263184,273.149261 455.625610,271.256744 457.060669,266.916321 
M449.427124,229.210510 
	C449.200989,233.745804 448.974854,238.281097 448.747864,242.833405 
	C455.190094,242.748184 456.954529,241.290314 457.122253,236.599686 
	C457.314606,231.219345 455.913239,229.667221 449.427124,229.210510 
z"/>
<path fill="#FEFEFF" opacity="1.000000" stroke="none" 
	d="
M376.998474,258.838043 
	C376.998413,245.406204 376.998413,232.452774 376.998413,219.251404 
	C383.851624,219.251404 390.261536,219.251404 397.295410,219.251404 
	C397.295410,223.331635 397.295258,227.270187 397.295441,231.208740 
	C397.296021,243.371628 397.314392,255.534576 397.285065,267.697388 
	C397.277588,270.790009 397.852081,273.845642 401.516083,273.812622 
	C405.139099,273.779999 405.728149,270.756775 405.720642,267.642242 
	C405.682068,251.657593 405.702789,235.672806 405.702789,219.343903 
	C412.386597,219.343903 418.812012,219.343903 425.652863,219.343903 
	C425.756409,220.408569 425.982330,221.666946 425.985168,222.925797 
	C426.012054,234.922012 426.060944,246.918716 425.985474,258.914520 
	C425.895691,273.182281 415.439362,283.911316 401.674683,283.996887 
	C387.826538,284.082947 377.380554,273.635162 376.998474,258.838043 
z"/>
<path fill="#FAFBFE" opacity="1.000000" stroke="none" 
	d="
M130.026459,272.870178 
	C128.562515,267.814178 126.731018,263.147583 126.136490,258.328369 
	C125.489357,253.082687 125.925003,247.694366 126.004013,242.369965 
	C126.204720,228.845032 137.043274,218.148529 150.630142,217.994781 
	C164.094574,217.842407 175.400818,228.459641 175.854172,241.831268 
	C176.028885,246.984543 175.890366,252.148590 175.885406,257.307739 
	C175.873627,269.588196 169.822296,278.851135 159.344269,282.638611 
	C148.718307,286.479553 138.139343,283.050232 130.026459,272.870178 
M155.118637,235.740402 
	C155.200378,232.492432 155.359421,228.698471 151.000290,228.597198 
	C146.110077,228.483582 146.654510,232.633194 146.645691,235.934174 
	C146.619034,245.918533 146.614960,255.903091 146.647919,265.887421 
	C146.658722,269.158539 145.982941,273.363770 150.780380,273.483490 
	C155.625626,273.604492 155.122330,269.483795 155.120544,266.142365 
	C155.115326,256.324341 155.118698,246.506302 155.118637,235.740402 
z"/>
<path fill="#AFCEF7" opacity="1.000000" stroke="none" 
	d="
M309.518494,129.375244 
	C304.804260,116.349968 303.564453,103.399132 306.842346,90.290680 
	C307.419495,87.982635 309.633789,85.040207 311.739166,84.341927 
	C320.070435,81.578781 328.552826,78.997673 337.177094,77.455971 
	C350.006195,75.162582 361.983887,71.229362 372.749054,62.881298 
	C375.492035,65.042122 378.175232,67.155830 381.275848,69.598366 
	C354.763489,89.914536 329.282623,110.695007 316.924988,144.389969 
	C314.277954,139.035309 311.978027,134.382797 309.518494,129.375244 
z"/>
<path fill="#AFCEF7" opacity="1.000000" stroke="none" 
	d="
M379.783936,173.807526 
	C377.190491,173.839722 375.036285,173.839722 371.673126,173.839722 
	C384.197784,147.346756 383.444366,117.129440 398.514008,90.357697 
	C400.322937,93.125885 401.225250,94.241241 401.845734,95.495972 
	C411.390594,114.797432 415.446106,135.434479 416.391113,156.761917 
	C416.458435,158.281708 414.927887,160.368347 413.545898,161.376862 
	C403.627258,168.614883 392.370972,172.435364 379.783936,173.807526 
z"/>
<path fill="#FBFCFF" opacity="1.000000" stroke="none" 
	d="
M28.261059,247.522690 
	C24.255375,238.385010 25.502419,229.277618 31.429312,223.606369 
	C32.726799,222.364868 34.358627,220.645615 35.879620,220.600479 
	C45.045311,220.328568 54.377930,219.469513 63.344223,220.839249 
	C69.484482,221.777252 71.743500,229.868744 70.519661,239.770401 
	C64.951721,239.770401 59.348564,239.770401 52.982159,239.770401 
	C52.982159,237.727219 53.541920,235.430618 52.825405,233.646576 
	C52.102634,231.846939 50.113300,230.555984 48.678871,229.042175 
	C47.417053,230.514359 45.877495,231.840012 44.995079,233.512375 
	C44.444504,234.555832 45.058300,236.150070 44.851803,237.449844 
	C44.022850,242.667450 46.094711,245.528656 51.330353,246.639816 
	C54.715309,247.358231 57.943050,248.838943 61.222038,250.030869 
	C69.266068,252.954926 73.130722,259.560791 71.806488,268.058594 
	C70.528336,276.260681 63.902218,282.620300 56.053383,282.967010 
	C52.065048,283.143188 48.062759,283.011230 44.066795,283.005737 
	C30.309454,282.986938 25.292202,277.127594 27.164099,262.963745 
	C32.883392,262.963745 38.640217,262.963745 44.953838,262.963745 
	C44.953838,265.266846 44.566078,267.493500 45.090515,269.479218 
	C45.438606,270.797211 46.922161,272.329376 48.214352,272.721649 
	C49.251568,273.036469 51.174683,272.129181 51.993568,271.162079 
	C54.936581,267.686249 52.781178,259.961945 48.520035,258.221191 
	C44.367725,256.524902 40.039978,255.203629 36.033592,253.223373 
	C33.293503,251.869003 30.972416,249.666901 28.261059,247.522690 
z"/>
<path fill="#FBFCFF" opacity="1.000000" stroke="none" 
	d="
M278.974182,228.224823 
	C282.681854,221.654907 287.994843,218.680069 295.193390,218.968811 
	C298.684174,219.108841 302.185425,218.970825 305.681610,218.997421 
	C316.662262,219.080917 321.367493,223.654755 321.875977,234.748016 
	C321.944336,236.239273 321.885376,237.736359 321.885376,239.618988 
	C316.149811,239.618988 310.426331,239.618988 303.980927,239.618988 
	C303.980927,237.681778 304.548309,235.371475 303.821625,233.588577 
	C303.092285,231.799149 301.073029,230.535461 299.619080,229.041382 
	C298.376862,230.533722 296.633759,231.850159 296.030823,233.567032 
	C295.405853,235.346619 296.073364,237.536285 295.842010,239.507431 
	C295.409943,243.188171 297.164062,245.005707 300.489624,246.017609 
	C304.460510,247.225845 308.373138,248.635712 312.277374,250.050919 
	C320.294342,252.956894 324.151031,259.627899 322.796875,268.116394 
	C321.487976,276.320984 314.859863,282.635803 306.995422,282.968811 
	C303.006561,283.137695 299.004852,283.011688 295.008972,283.005676 
	C281.293884,282.985016 276.153290,276.934235 278.248688,262.694366 
	C279.960144,262.694366 281.751587,262.694397 283.543030,262.694397 
	C287.513916,262.694397 291.484802,262.694366 295.960510,262.694366 
	C295.960510,265.302124 295.568359,267.541382 296.099670,269.534454 
	C296.448425,270.842743 297.969696,272.356476 299.267548,272.730103 
	C300.308899,273.029846 302.217926,272.094482 303.023438,271.115845 
	C305.973236,267.531982 303.806335,259.973969 299.468842,258.198273 
	C295.932190,256.750397 292.424866,255.159439 288.772064,254.080460 
	C278.641174,251.087906 275.309357,243.493011 277.665070,231.859543 
	C277.893219,230.733002 278.426666,229.668274 278.974182,228.224823 
z"/>
<path fill="#FEFEFF" opacity="1.000000" stroke="none" 
	d="
M82.084999,218.998383 
	C89.569092,218.999207 96.563431,218.915253 103.554924,219.020554 
	C114.305527,219.182449 122.907166,227.533127 123.000549,237.752380 
	C123.092545,247.820282 113.532845,257.719971 103.417786,257.988495 
	C100.792534,258.058167 98.163857,257.998993 95.197144,257.998993 
	C95.197144,266.329163 95.197144,274.265106 95.197144,282.600647 
	C88.484062,282.600647 82.096832,282.600647 75.350410,282.600647 
	C75.350410,261.718109 75.350410,240.677917 75.350410,218.998383 
	C77.399117,218.998383 79.496544,218.998383 82.084999,218.998383 
M94.990875,240.421936 
	C94.990875,242.870148 94.990875,245.318359 94.990875,247.787628 
	C102.051529,247.392273 103.551674,245.154602 103.133995,236.332596 
	C102.894745,231.279144 100.476997,229.190735 94.990875,229.555496 
	C94.990875,232.843735 94.990875,236.152817 94.990875,240.421936 
z"/>
<path fill="#FFFFFF" opacity="1.000000" stroke="none" 
	d="
M274.996735,222.123077 
	C274.998291,224.555389 274.998291,226.515411 274.998291,228.813919 
	C270.332794,228.813919 266.057587,228.813919 261.270020,228.813919 
	C261.270020,246.860107 261.270020,264.577484 261.270020,282.644592 
	C254.384445,282.644592 247.999268,282.644592 241.093781,282.644592 
	C241.093781,264.950806 241.093781,247.234497 241.093781,229.175095 
	C236.322983,229.175095 232.051468,229.175095 227.391357,229.175095 
	C227.391357,225.786972 227.391357,222.736038 227.391357,219.001099 
	C231.671646,219.001099 236.100403,219.001068 240.529160,219.001114 
	C250.686630,219.001205 260.844208,218.981003 271.001526,219.020233 
	C272.826874,219.027283 275.342194,218.237946 274.996735,222.123077 
z"/>
<path fill="#AECDF7" opacity="1.000000" stroke="none" 
	d="
M428.434479,147.396698 
	C426.865845,149.257309 425.521332,150.842636 423.409882,153.332275 
	C421.291962,130.035553 416.991608,108.545395 406.085297,88.607010 
	C412.926270,85.800369 419.518799,85.203476 425.102570,89.930054 
	C431.023834,94.942291 436.393036,100.650444 441.625671,106.398476 
	C442.785767,107.672852 442.813995,110.436722 442.596680,112.431198 
	C441.197571,125.271301 436.555084,136.863983 428.434479,147.396698 
z"/>
<path fill="#AECDF7" opacity="1.000000" stroke="none" 
	d="
M318.340454,64.349457 
	C324.853333,58.227127 331.114380,52.352352 337.456635,46.566601 
	C339.812927,44.417068 342.373413,44.372543 345.213531,45.994160 
	C352.224304,49.997070 359.337097,53.821316 367.028290,58.058632 
	C350.507263,71.885559 329.868805,69.329239 311.440094,75.664299 
	C313.666992,71.986984 315.893921,68.309669 318.340454,64.349457 
z"/>
<path fill="#AECDF7" opacity="1.000000" stroke="none" 
	d="
M421.905518,80.574226 
	C416.418915,80.627136 411.222626,80.289223 406.263306,81.217400 
	C402.907898,81.845383 401.094788,81.336365 399.269897,78.601135 
	C397.532593,75.997139 395.281464,73.735939 392.997864,71.016335 
	C402.221436,63.819115 412.809143,60.538982 424.142975,59.222775 
	C424.829529,59.143044 425.828613,59.608459 426.301300,60.151707 
	C434.863068,69.992020 440.067780,81.347939 442.069336,93.926819 
	C435.358948,89.445557 428.827850,85.084038 421.905518,80.574226 
z"/>
<path fill="#D6E6FB" opacity="1.000000" stroke="none" 
	d="
M127.949478,309.015564 
	C130.598770,309.025116 132.771469,308.909637 134.924240,309.066956 
	C142.318420,309.607391 147.867142,315.445740 147.959839,322.861816 
	C148.050446,330.110840 147.979553,337.361877 147.979553,344.772614 
	C136.023392,332.771790 124.605286,321.311005 112.355659,309.015594 
	C117.466515,309.015594 122.465141,309.015594 127.949478,309.015564 
z"/>
<path fill="#D6E6FB" opacity="1.000000" stroke="none" 
	d="
M57.995941,421.983704 
	C54.678268,421.982910 51.851833,422.028320 49.027470,421.971252 
	C42.389641,421.837189 36.417755,418.007690 35.693737,411.532410 
	C34.772537,403.293579 35.470657,394.873657 35.470657,386.284637 
	C47.522060,398.303345 58.985901,409.736084 71.266426,421.983307 
	C66.627319,421.983307 62.557720,421.983307 57.995941,421.983704 
z"/>
<path fill="#AECDF7" opacity="1.000000" stroke="none" 
	d="
M396.977814,39.942291 
	C404.460602,43.771957 411.567780,47.479675 419.834900,51.792534 
	C411.990784,54.547539 405.958160,56.594269 399.986786,58.806435 
	C398.138031,59.491341 396.437897,60.593697 394.700531,61.560291 
	C386.200928,66.288994 385.755188,66.198906 378.877472,57.848843 
	C385.206512,52.938129 388.663605,46.459908 387.880646,37.451977 
	C391.300812,38.380733 393.951477,39.100540 396.977814,39.942291 
z"/>
<path fill="#AECDF7" opacity="1.000000" stroke="none" 
	d="
M361.228088,46.711235 
	C357.600098,44.667927 354.284424,42.815369 350.068573,40.459831 
	C359.891754,36.626408 369.216400,35.473663 378.800598,36.353767 
	C379.587280,36.426006 380.667999,38.427940 380.800415,39.623173 
	C381.445618,45.447433 379.899292,48.034557 372.677887,53.853863 
	C369.059326,51.595207 365.299866,49.248596 361.228088,46.711235 
z"/>
<path fill="#92BCF4" opacity="1.000000" stroke="none" 
	d="
M300.369049,351.409790 
	C296.600342,357.925385 293.134277,364.196594 289.350952,370.270203 
	C288.589233,371.493011 286.623627,371.965912 285.213074,372.784576 
	C285.127197,371.183167 284.389893,369.214630 285.054169,368.036011 
	C293.556030,352.951080 302.216522,337.954529 310.994720,323.028442 
	C311.651459,321.911743 313.514343,321.504395 314.816528,320.767273 
	C314.961151,322.360352 315.778992,324.320160 315.142914,325.487946 
	C310.444763,334.112610 305.456787,342.579346 300.369049,351.409790 
z"/>
<path fill="#1F76E9" opacity="1.000000" stroke="none" 
	d="
M92.653503,352.027466 
	C94.306358,353.121552 95.595612,354.114075 97.295761,355.422913 
	C98.951241,353.455261 100.534851,351.573029 101.460457,350.472900 
	C100.941238,347.407532 100.488678,344.735718 100.036118,342.063934 
	C102.619423,342.496246 105.202728,342.928558 107.250259,343.271210 
	C110.017014,342.878235 112.600220,342.511322 115.183418,342.144409 
	C114.839752,344.604004 114.496094,347.063599 114.080742,350.036285 
	C114.307747,351.964691 114.628242,354.687225 114.948738,357.409790 
	C112.446846,356.927704 109.944954,356.445648 107.443054,355.963562 
	C107.322121,355.441071 107.201187,354.918579 107.080254,354.396057 
	C105.491837,356.279053 103.903419,358.162018 103.187302,359.010925 
	C103.634109,362.626862 103.968254,365.330994 104.302391,368.035126 
	C101.854225,367.607239 99.406059,367.179382 96.957886,366.751495 
	C96.906998,366.264099 96.856102,365.776703 96.805206,365.289307 
	C95.050262,366.967834 93.295319,368.646362 92.430489,369.473541 
	C92.993454,373.057373 93.420494,375.775970 93.847542,378.494537 
	C91.379761,378.153290 88.911972,377.812042 86.444191,377.470764 
	C86.262733,376.811432 86.081268,376.152100 85.899803,375.492767 
	C84.372116,377.602570 82.844421,379.712402 81.911964,381.000153 
	C82.374664,383.964630 82.781006,386.568024 83.187340,389.171387 
	C80.722313,388.836487 78.257286,388.501556 75.260551,388.094421 
	C73.312897,388.301971 70.585434,388.592651 67.857971,388.883301 
	C68.340675,386.452942 68.823380,384.022583 69.363525,381.303040 
	C69.024811,379.321167 68.568901,376.653595 68.112999,373.986023 
	C70.559227,374.299896 73.005455,374.613800 75.451683,374.927673 
	C75.567856,375.534180 75.684021,376.140717 75.800186,376.747253 
	C77.256287,374.608582 78.712379,372.469910 79.954552,370.645447 
	C79.613388,368.609497 79.175987,365.999237 78.738586,363.388947 
	C81.331711,363.795135 83.924835,364.201294 86.517952,364.607483 
	C86.619019,365.097595 86.720085,365.587708 86.821152,366.077789 
	C88.313385,364.084412 89.805611,362.091034 91.374878,359.994720 
	C87.056435,353.752075 87.079948,353.367767 92.653503,352.027466 
z"/>
<path fill="#1C74E8" opacity="1.000000" stroke="none" 
	d="
M448.612671,325.330627 
	C449.695190,326.152679 450.502228,326.742096 451.274750,327.373779 
	C463.360962,337.256805 464.786224,342.498108 458.925415,356.759216 
	C458.408142,358.017975 456.727264,359.134430 455.340149,359.639374 
	C450.346313,361.457428 445.299591,363.193390 440.155579,364.498138 
	C438.571991,364.899780 436.252014,364.323517 434.890747,363.337189 
	C429.509766,359.438599 424.375641,355.199310 419.149261,351.087219 
	C419.018585,350.984375 418.776489,350.906006 418.760345,350.791626 
	C418.112732,346.206757 417.197937,341.635376 416.936432,337.027130 
	C416.678070,332.473633 415.327148,327.148468 422.421448,325.859924 
	C424.981659,325.394958 427.545807,324.231842 429.786316,322.861206 
	C436.653625,318.660126 442.683289,319.936493 448.612671,325.330627 
z"/>
<path fill="#1C74E8" opacity="1.000000" stroke="none" 
	d="
M395.416016,362.602264 
	C393.127045,365.091034 390.873108,365.733612 388.052124,364.271210 
	C386.743134,363.592651 385.253357,363.064209 383.796906,362.900604 
	C373.151733,361.704834 368.168732,355.662201 367.201172,345.133759 
	C366.856750,341.386017 366.586548,338.313354 369.570831,335.768036 
	C375.226959,330.943695 380.747375,325.921173 386.747345,321.563629 
	C388.474060,320.309631 391.868347,320.333954 394.116669,321.020691 
	C399.339081,322.615875 404.420013,324.781952 409.354828,327.141998 
	C410.737732,327.803345 411.433777,329.930481 412.392181,331.419220 
	C412.543823,331.654724 412.411743,332.070740 412.416687,332.403229 
	C412.682037,350.293854 412.682098,350.293854 395.416016,362.602264 
z"/>
<path fill="#1C74E8" opacity="1.000000" stroke="none" 
	d="
M364.049347,369.045288 
	C367.224945,363.124146 371.137695,363.588013 376.932770,364.962494 
	C387.781769,367.535736 391.886444,373.512177 394.509796,384.190521 
	C396.959412,394.161652 392.974243,399.893921 387.551727,406.150574 
	C386.809204,407.007263 384.961151,407.392700 383.716309,407.241943 
	C378.601288,406.622467 373.473785,405.922974 368.455780,404.788818 
	C366.781281,404.410339 364.653168,402.955505 364.048645,401.460480 
	C361.446411,395.024963 359.043304,388.470490 357.225372,381.780609 
	C356.703369,379.859772 358.046173,377.153229 359.149872,375.145538 
	C360.330597,372.997772 362.238586,371.249847 364.049347,369.045288 
z"/>
<path fill="#1C74E8" opacity="1.000000" stroke="none" 
	d="
M470.744202,388.475525 
	C465.569427,404.178833 465.540253,404.014648 449.330383,406.894714 
	C444.694000,407.718445 441.845062,406.799255 438.860443,402.951904 
	C434.665375,397.544373 433.401581,392.754242 434.555511,385.483337 
	C436.450562,373.542480 441.651062,367.193665 453.487396,364.607819 
	C458.720581,363.464600 461.843811,363.529358 464.485107,368.130402 
	C465.139740,369.270782 465.932159,370.452911 466.950195,371.243866 
	C472.852478,375.829315 473.264404,381.610748 470.744202,388.475525 
z"/>
<path fill="#1C74E8" opacity="1.000000" stroke="none" 
	d="
M428.466797,428.798157 
	C425.891724,429.541321 423.647552,430.153076 421.364899,430.535065 
	C410.012817,432.434937 400.242584,430.976685 395.276093,418.628510 
	C394.117950,415.749146 392.076996,413.224792 390.312225,410.323334 
	C393.108459,406.565491 395.722931,402.703827 398.742767,399.190613 
	C399.740936,398.029297 401.766846,397.237152 403.352753,397.184906 
	C410.003326,396.965912 416.680084,397.360168 423.317444,396.992004 
	C427.428680,396.763947 429.719177,398.452576 432.523041,401.299713 
	C438.593445,407.463806 439.474915,413.210480 433.944763,420.040375 
	C431.873993,422.597809 430.481659,425.704559 428.466797,428.798157 
z"/>
<path fill="#1C74E8" opacity="1.000000" stroke="none" 
	d="
M189.961990,94.220535 
	C190.327377,97.109329 190.635651,99.576004 190.999512,102.487274 
	C187.756058,103.021225 184.722900,103.520554 181.188904,104.102333 
	C180.393448,101.333992 179.939575,98.524521 178.740479,96.080711 
	C178.105301,94.786209 176.174988,94.127205 174.829361,93.181297 
	C174.147034,94.656212 172.831528,96.170593 172.920471,97.597427 
	C173.081818,100.186104 174.079254,102.722672 174.771469,105.453682 
	C170.958847,107.012169 167.293808,108.510323 163.220932,110.175186 
	C162.033295,108.170494 160.893616,106.180504 159.688690,104.230835 
	C158.397369,102.141388 157.121384,99.098137 154.178925,101.244759 
	C153.216553,101.946838 153.634262,105.273979 154.211014,107.158813 
	C154.868195,109.306503 156.408554,111.183945 157.645523,113.317657 
	C154.467117,115.753075 151.582825,117.963112 147.485489,121.102646 
	C146.008331,119.108681 144.814514,116.731041 142.924240,115.231033 
	C141.778290,114.321671 139.554596,114.770462 137.815094,114.609085 
	C138.039688,116.210632 137.752182,118.197388 138.602722,119.328033 
	C140.065643,121.272720 142.237915,122.683792 144.256378,124.444374 
	C141.683075,127.719742 139.554810,130.428635 137.058624,133.605850 
	C134.815872,132.362534 132.657898,130.779907 130.240921,129.976440 
	C128.869827,129.520660 127.074280,130.341797 125.469894,130.587830 
	C125.980286,132.111130 126.055176,134.120392 127.095337,135.052567 
	C129.024200,136.781219 131.517044,137.880600 133.745834,139.224426 
	C132.022034,143.172989 130.438629,146.799957 128.750931,150.665817 
	C125.847786,149.959518 123.161240,148.948425 120.425148,148.789352 
	C119.033363,148.708405 117.552444,150.160416 116.111809,150.919464 
	C116.983978,152.157837 117.593033,153.970795 118.782799,154.515610 
	C121.301064,155.668793 124.122429,156.160065 127.142792,157.014252 
	C126.644432,160.684738 126.183968,164.076065 125.731239,167.410477 
	C96.551224,169.669037 63.834244,136.967789 66.221497,107.749954 
	C69.171120,107.346931 72.218712,106.930527 75.515541,106.480072 
	C76.267685,109.027298 76.620949,111.388138 77.679970,113.372299 
	C78.312531,114.557442 80.051338,115.152130 81.292862,116.012245 
	C82.078323,114.588417 83.489494,113.169403 83.500473,111.739632 
	C83.516365,109.669640 82.519112,107.591866 81.837128,105.088196 
	C85.676506,103.451157 89.430267,101.850624 93.637497,100.056740 
	C94.978653,102.262169 96.066223,104.727119 97.788307,106.612518 
	C98.725716,107.638809 100.740471,107.681084 102.269318,108.167175 
	C102.512222,106.574615 103.303543,104.810593 102.871605,103.429016 
	C102.196175,101.268616 100.692902,99.367043 99.320435,96.972099 
	C102.276489,94.605865 105.204498,92.262093 108.549057,89.584885 
	C110.347878,91.298630 111.923393,93.261772 113.936356,94.531303 
	C115.016769,95.212708 116.848923,94.702156 118.341866,94.729469 
	C118.307083,93.230408 118.846260,91.299294 118.113396,90.325729 
	C116.751137,88.516052 114.647171,87.264709 112.693085,85.649574 
	C115.404152,82.071434 117.569748,79.213211 119.968781,76.046906 
	C122.158264,77.240791 124.201057,78.729218 126.486015,79.450592 
	C127.721931,79.840782 129.371262,78.921509 130.834091,78.592957 
	C130.444687,77.144882 130.501419,75.216019 129.570160,74.351868 
	C127.797867,72.707298 125.461014,71.671127 123.276413,70.331947 
	C124.875824,66.425919 126.369530,62.778061 128.029053,58.725239 
	C130.160049,59.203144 132.252655,59.558994 134.274353,60.155281 
	C136.665756,60.860600 139.422546,61.486309 139.798706,58.333298 
	C139.948822,57.075146 137.359543,55.136417 135.654114,54.112309 
	C134.019821,53.130928 131.914856,52.933361 129.564270,52.262100 
	C129.945129,49.157227 130.302094,46.247196 130.649582,43.414387 
	C154.705246,39.598869 182.781281,63.610180 189.961990,94.220535 
z"/>
<path fill="#1F76E9" opacity="1.000000" stroke="none" 
	d="
M174.434372,112.450882 
	C175.801804,113.662399 177.174103,114.889900 177.743530,116.416817 
	C178.592575,118.693527 179.176071,121.484100 182.172699,120.222023 
	C183.301880,119.746452 183.646957,116.780762 183.830826,114.899551 
	C183.963806,113.538864 183.241150,112.094536 182.792297,110.242783 
	C185.569443,109.864632 187.933899,109.542679 190.376419,109.210098 
	C189.788864,141.047638 160.583069,167.465347 132.119415,167.248703 
	C132.529388,164.488907 132.928894,161.799591 133.293045,159.348251 
	C137.003342,158.228058 141.959503,163.231094 143.290710,157.864868 
	C144.594604,152.608795 137.892792,154.607681 135.212875,151.840515 
	C136.467987,148.930542 137.810730,145.817413 139.294464,142.377365 
	C141.681000,143.702881 143.452209,145.096680 145.455719,145.651215 
	C146.732315,146.004578 148.353241,145.113876 149.819763,144.781006 
	C149.414017,143.339111 149.429016,141.478226 148.506042,140.551407 
	C147.041763,139.081009 144.950562,138.234909 142.665619,136.845642 
	C144.605209,134.333054 146.369568,132.047455 149.282333,128.274170 
	C150.645172,130.424759 151.315369,132.440353 152.711761,133.408752 
	C154.032181,134.324463 156.115341,134.140335 157.863007,134.439957 
	C157.643250,132.721008 157.874390,130.745132 157.081085,129.353027 
	C156.232285,127.863541 154.418030,126.924217 152.549866,125.342278 
	C155.548569,122.985260 157.958191,121.091263 160.208588,119.322426 
	C163.655243,120.787422 163.246414,127.998230 168.249344,125.057434 
	C172.746429,122.413979 167.232162,119.475937 166.992249,115.674477 
	C169.103561,114.758896 171.591782,113.679871 174.434372,112.450882 
z"/>
<path fill="#1F76E9" opacity="1.000000" stroke="none" 
	d="
M79.640373,65.664520 
	C91.258415,51.876244 105.744713,44.393963 124.104950,42.696201 
	C123.849808,45.404465 123.632462,47.711498 123.370842,50.488495 
	C120.853699,49.915005 118.928543,49.059586 117.069771,49.185326 
	C115.593887,49.285168 114.199257,50.585842 112.768547,51.353352 
	C113.627319,52.583035 114.231079,54.244633 115.406235,54.938477 
	C117.059097,55.914387 119.135956,56.172211 121.742020,56.948860 
	C120.385696,60.446148 119.124397,63.698429 117.753777,67.232582 
	C115.087181,65.741196 113.032257,64.201317 110.721169,63.459209 
	C109.511536,63.070786 107.852104,64.083145 106.395813,64.462868 
	C106.832977,65.891304 106.846207,67.792351 107.798470,68.646553 
	C109.598099,70.260849 111.937531,71.273354 114.486099,72.794693 
	C112.519669,75.382263 110.752075,77.708191 108.757736,80.332489 
	C107.414886,79.129135 106.377396,78.134125 105.271240,77.222420 
	C103.258301,75.563332 101.413536,71.829971 98.418037,74.992523 
	C95.406982,78.171486 99.422752,79.817802 101.043106,81.780617 
	C101.862122,82.772736 103.134064,83.390938 104.689484,84.538406 
	C101.516701,87.060852 99.092308,88.988312 96.164665,91.315865 
	C94.836861,89.128197 93.914009,86.986427 92.419090,85.375557 
	C91.508720,84.394585 89.716499,84.231995 88.320396,83.701805 
	C87.903511,85.250023 86.882179,86.944443 87.212929,88.311813 
	C87.696152,90.309517 89.150032,92.072441 90.500511,94.491295 
	C87.075081,95.925735 83.946579,97.235840 80.359314,98.738060 
	C79.509148,95.976585 79.117035,93.460724 77.948822,91.380768 
	C77.263222,90.160080 75.342461,89.633133 73.977287,88.794136 
	C73.325203,90.142387 72.082542,91.522079 72.152267,92.831902 
	C72.272484,95.090233 73.209000,97.305115 73.941002,100.057129 
	C71.401840,100.484383 69.022469,100.884750 65.926224,101.405746 
	C66.477951,87.662498 71.404465,76.233566 79.640373,65.664520 
z"/>
<path fill="#1C74E8" opacity="1.000000" stroke="none" 
	d="
M266.212799,431.203369 
	C262.784332,437.143860 259.436890,442.712372 256.340332,448.417053 
	C254.801743,451.251495 252.929230,452.765930 249.551498,453.386658 
	C243.273758,454.540344 237.486526,456.655334 234.293640,463.302246 
	C233.599548,464.747192 229.408615,464.796265 226.820007,464.828674 
	C226.241394,464.835907 225.034546,462.024689 225.137619,460.584076 
	C225.505371,455.443726 226.120834,450.297974 227.092941,445.240845 
	C227.326294,444.026947 229.272552,442.280792 230.472702,442.246735 
	C243.241547,441.884247 252.055878,435.664276 258.113892,424.710052 
	C262.720367,416.380493 262.879272,416.468384 270.956451,422.889679 
	C269.471466,425.494720 267.934418,428.191132 266.212799,431.203369 
z"/>
<path fill="#1F76E9" opacity="1.000000" stroke="none" 
	d="
M251.049377,484.222900 
	C248.419159,483.459930 246.144379,482.920349 244.011780,482.037384 
	C240.496597,480.581909 238.817917,478.054504 240.248810,473.578400 
	C252.283020,478.135406 264.390472,478.596924 276.490265,473.410767 
	C278.335785,478.051483 276.243683,480.615204 272.482574,482.227997 
	C265.716339,485.129395 258.667206,485.575226 251.049377,484.222900 
z"/>
<path fill="#1F76E9" opacity="1.000000" stroke="none" 
	d="
M181.903595,457.056183 
	C182.159744,459.776672 182.375809,462.059845 182.659714,465.060028 
	C179.413712,465.060028 176.443909,465.381897 173.606628,464.908905 
	C172.393738,464.706696 170.613190,462.900543 170.539795,461.732208 
	C170.207825,456.447937 170.228897,451.124115 170.454712,445.828705 
	C170.592743,442.591827 173.121292,442.168304 175.853073,442.051300 
	C178.641296,441.931946 180.213699,442.739563 180.473145,445.764984 
	C180.784531,449.395996 181.387054,453.002014 181.903595,457.056183 
z"/>
<path fill="#1F76E9" opacity="1.000000" stroke="none" 
	d="
M208.672012,463.822876 
	C205.259644,464.630432 201.948837,465.012878 197.901978,465.480316 
	C198.797699,457.781158 199.447769,451.207275 200.445236,444.686523 
	C200.594299,443.712006 202.769760,442.083649 203.320831,442.325165 
	C204.674210,442.918304 206.395325,444.298340 206.609055,445.587250 
	C207.586426,451.481659 208.095963,457.453613 208.672012,463.822876 
z"/>
<path fill="#1F76E9" opacity="1.000000" stroke="none" 
	d="
M220.475006,442.292236 
	C221.057083,444.411682 221.495148,446.451721 221.333572,448.443085 
	C220.958984,453.059967 220.478760,457.688293 219.616638,462.231384 
	C219.404343,463.350159 217.680847,464.560211 216.419861,464.924469 
	C215.880646,465.080200 214.149979,463.270905 213.981323,462.194550 
	C212.985687,455.840851 212.290421,449.440125 211.386215,442.190674 
	C214.623398,442.190674 217.341003,442.190674 220.475006,442.292236 
z"/>
<path fill="#1F76E9" opacity="1.000000" stroke="none" 
	d="
M186.744873,442.272766 
	C187.483063,442.157227 187.813232,442.120819 188.143860,442.115906 
	C195.695114,442.003662 195.703476,442.012909 194.719391,449.517059 
	C194.181442,453.619263 193.812469,457.755829 192.995850,461.801971 
	C192.749451,463.022858 191.256485,463.992218 190.334534,465.076782 
	C189.449524,464.110413 187.894028,463.211609 187.788727,462.166656 
	C187.125565,455.584656 186.784531,448.970245 186.744873,442.272766 
z"/>
<path fill="#1C74E8" opacity="1.000000" stroke="none" 
	d="
M198.998917,238.034332 
	C199.010208,235.227234 199.014114,232.903061 199.041321,230.579193 
	C199.045090,230.256729 199.163834,229.935638 199.233826,229.614822 
	C204.277069,229.126984 206.854965,231.310364 207.121994,236.292908 
	C207.611023,245.418106 205.926437,247.946640 198.998917,247.917862 
	C198.998917,244.787735 198.998917,241.652542 198.998917,238.034332 
z"/>
<path fill="#1C74E8" opacity="1.000000" stroke="none" 
	d="
M457.000153,267.340759 
	C455.625610,271.256744 453.263184,273.149261 449.126892,272.812469 
	C449.126892,266.308319 449.126892,259.891541 449.126892,253.476517 
	C454.486908,253.271042 456.897827,255.365952 457.102722,260.436707 
	C457.189789,262.592499 457.080658,264.756195 457.000153,267.340759 
z"/>
<path fill="#1C74E8" opacity="1.000000" stroke="none" 
	d="
M449.859863,229.122940 
	C455.913239,229.667221 457.314606,231.219345 457.122253,236.599686 
	C456.954529,241.290314 455.190094,242.748184 448.747864,242.833405 
	C448.974854,238.281097 449.200989,233.745804 449.859863,229.122940 
z"/>
<path fill="#1C74E8" opacity="1.000000" stroke="none" 
	d="
M155.118683,236.214340 
	C155.118698,246.506302 155.115326,256.324341 155.120544,266.142365 
	C155.122330,269.483795 155.625626,273.604492 150.780380,273.483490 
	C145.982941,273.363770 146.658722,269.158539 146.647919,265.887421 
	C146.614960,255.903091 146.619034,245.918533 146.645691,235.934174 
	C146.654510,232.633194 146.110077,228.483582 151.000290,228.597198 
	C155.359421,228.698471 155.200378,232.492432 155.118683,236.214340 
z"/>
<path fill="#1F76E9" opacity="1.000000" stroke="none" 
	d="
M94.990875,239.941910 
	C94.990875,236.152817 94.990875,232.843735 94.990875,229.555496 
	C100.476997,229.190735 102.894745,231.279144 103.133995,236.332596 
	C103.551674,245.154602 102.051529,247.392273 94.990875,247.787628 
	C94.990875,245.318359 94.990875,242.870148 94.990875,239.941910 
z"/>
</svg>